<?xml version="1.0" standalone="no"?>
<!DOCTYPE svg PUBLIC "-//W3C//DTD SVG 20010904//EN"
 "http://www.w3.org/TR/2001/REC-SVG-20010904/DTD/svg10.dtd">
<svg version="1.0" xmlns="http://www.w3.org/2000/svg"
 width="5000.000000pt" height="3500.000000pt" viewBox="0 0 5000.000000 3500.000000"
 preserveAspectRatio="xMidYMid meet">

<g transform="translate(0.000000,3500.000000) scale(0.100000,-0.100000)"
fill="#000000" stroke="none">
<path d="M24525 25839 c-299 -40 -564 -251 -670 -534 -57 -150 -55 -87 -55
-1766 0 -937 4 -1549 9 -1549 8 0 345 124 1376 505 l280 104 3 1238 c2 1356 4
1323 -57 1478 -136 352 -513 575 -886 524z"/>
<path d="M22085 24380 c-129 -20 -276 -89 -386 -181 -100 -83 -194 -239 -230
-376 -18 -73 -19 -126 -19 -1386 0 -720 2 -1312 4 -1314 2 -2 118 38 257 90
140 51 473 174 742 273 l487 179 -2 1060 -3 1060 -31 88 c-45 125 -87 190
-189 292 -101 102 -196 158 -322 194 -87 23 -226 33 -308 21z"/>
<path d="M19895 22846 c-193 -47 -363 -215 -404 -398 -10 -42 -17 -2045 -8
-2054 2 -2 242 85 535 193 l532 197 0 806 c0 691 -2 814 -15 865 -72 277 -368
457 -640 391z"/>
<path d="M26340 22621 c-146 -54 -609 -225 -1030 -381 -421 -155 -972 -358
-1225 -452 -253 -93 -732 -270 -1065 -393 -333 -123 -1039 -384 -1570 -580
-531 -196 -1192 -440 -1470 -542 -278 -102 -508 -189 -513 -192 -4 -4 -6 -399
-5 -877 l3 -870 225 104 c3438 1589 7492 2671 12220 3261 217 27 486 60 597
72 112 13 202 24 200 25 -2 2 -49 9 -707 109 -201 31 -466 71 -590 90 -1695
261 -4757 725 -4778 725 -15 -1 -146 -45 -292 -99z"/>
<path d="M39720 21923 c-1874 -20 -3878 -118 -5610 -274 -5050 -453 -9348
-1414 -13025 -2912 -1040 -424 -2100 -930 -3030 -1445 -986 -546 -1905 -1141
-2770 -1792 -245 -184 -595 -458 -595 -466 0 -1 33 8 72 22 322 110 915 258
1303 325 l130 22 268 154 c1131 649 2117 1154 3407 1745 1424 652 3165 1306
4694 1763 2180 651 4130 1093 6326 1434 1642 255 3252 439 5700 650 509 44
2791 231 2820 231 4 0 70 53 147 118 76 64 223 186 326 271 103 84 187 155
187 157 0 2 -33 3 -72 2 -40 -2 -165 -4 -278 -5z"/>
<path d="M36885 20333 c-2971 -19 -6134 -349 -9092 -948 -1099 -222 -2140
-469 -2933 -694 -2256 -641 -4394 -1438 -6635 -2473 -663 -307 -1563 -750
-1505 -743 58 8 354 34 540 47 108 8 383 13 722 13 l547 0 16 72 c33 146 121
270 230 323 76 37 180 35 258 -5 130 -65 237 -250 237 -409 0 -29 5 -48 13
-50 6 -2 95 -13 197 -25 1362 -158 2956 -578 4687 -1237 672 -256 861 -336
1283 -548 1053 -530 1832 -878 2748 -1230 807 -310 1754 -619 2479 -810 l132
-34 232 326 c1373 1930 2699 3619 4068 5182 478 545 1034 1151 1510 1645 258
267 1117 1121 1359 1349 133 126 242 233 242 238 0 4 -195 9 -432 10 -586 3
-554 3 -903 1z m-9294 -1575 c439 -162 603 -877 307 -1335 -133 -205 -346
-317 -547 -286 -254 40 -460 269 -537 599 -30 125 -25 358 9 488 75 282 252
487 475 552 72 21 212 12 293 -18z m-2418 -658 c127 -39 239 -145 312 -295 68
-139 80 -195 80 -375 0 -132 -3 -167 -23 -234 -55 -190 -174 -347 -317 -417
-66 -32 -75 -34 -175 -34 -102 0 -109 1 -183 38 -159 79 -276 245 -324 460
-24 107 -21 290 6 397 45 176 158 347 278 417 108 63 232 78 346 43z m-2189
-769 c132 -65 240 -211 287 -388 31 -114 31 -289 0 -403 -49 -183 -153 -325
-287 -391 -64 -32 -75 -34 -169 -34 -93 0 -105 2 -167 33 -132 65 -242 217
-288 397 -29 111 -29 280 -1 390 51 198 167 348 318 411 49 21 71 24 148 22
80 -3 99 -7 159 -37z m-2161 -698 c86 -27 177 -110 235 -213 136 -245 95 -598
-89 -783 -83 -83 -150 -112 -259 -112 -74 0 -93 4 -145 29 -181 89 -297 325
-282 576 10 171 70 312 176 413 111 106 224 134 364 90z"/>
<path d="M17568 13385 c-5 -5 -234 -14 -378 -14 -58 0 -295 -21 -480 -42
-1214 -139 -2348 -560 -3380 -1253 -182 -123 -470 -331 -470 -340 0 -2 55 14
123 36 1247 401 2575 596 3912 575 858 -14 1590 -91 2455 -261 815 -160 1766
-439 2575 -756 72 -28 146 -57 165 -64 187 -71 549 -229 1025 -448 2247 -1035
4136 -1551 6037 -1649 302 -15 1122 -7 1398 15 612 48 1171 132 1750 262 260
58 290 66 284 76 -3 5 -85 9 -182 9 -650 -1 -1803 128 -2627 294 -66 13 -199
38 -295 55 -296 53 -628 119 -804 160 -50 11 -96 18 -103 15 -8 -2 -12 -1 -9
3 3 5 -23 14 -57 21 -81 16 -417 100 -583 145 -71 20 -139 37 -150 39 -10 2
-26 7 -34 10 -39 16 -102 27 -113 21 -6 -4 -9 -3 -4 1 8 9 -242 87 -254 79 -4
-2 -9 -1 -11 4 -1 4 -59 25 -128 46 -69 20 -154 47 -190 58 -36 11 -69 21 -75
23 -5 1 -22 7 -36 13 -40 16 -129 41 -129 36 0 -2 -10 2 -23 11 -12 8 -32 16
-42 18 -11 1 -24 5 -30 8 -5 4 -41 16 -80 29 -79 25 -210 71 -303 107 -34 13
-67 21 -71 18 -5 -3 -11 -1 -13 3 -4 11 -487 194 -515 196 -11 0 -19 4 -17 7
6 10 -84 41 -97 33 -7 -4 -9 -3 -5 4 8 13 -29 26 -45 16 -7 -4 -9 -3 -6 3 8
12 -199 97 -215 87 -6 -4 -8 -3 -4 4 3 6 -9 15 -31 23 -20 6 -70 27 -112 46
-42 20 -86 35 -98 35 -13 0 -20 5 -17 10 4 6 -4 4 -17 -3 -21 -11 -22 -10 -12
3 11 13 3 18 -51 40 -44 17 -69 22 -80 16 -11 -6 -23 -4 -38 6 -12 9 -18 16
-12 16 5 0 15 -5 21 -11 6 -6 16 -8 23 -4 15 9 -88 58 -107 50 -8 -2 -12 -1
-9 4 8 12 -20 22 -41 15 -13 -4 -14 -3 -5 3 16 12 -61 45 -86 37 -15 -5 -15
-4 -2 5 11 8 11 11 3 12 -23 3 -28 4 -41 13 -8 5 -28 10 -45 11 -18 1 -41 6
-52 10 -20 7 -20 6 -1 -9 11 -9 15 -16 9 -16 -7 0 -15 5 -18 11 -4 6 -14 8
-23 4 -13 -5 -12 -1 3 13 18 17 22 17 43 4 12 -8 22 -10 22 -5 0 6 -28 23 -62
38 -109 48 -192 87 -212 97 -10 6 -16 6 -13 1 3 -5 -3 -9 -13 -9 -14 0 -16 3
-8 13 8 11 7 12 -7 7 -11 -5 -16 -4 -12 3 8 12 -40 36 -55 27 -6 -4 -8 -3 -5
3 9 14 -38 34 -60 26 -10 -4 -14 -2 -10 4 4 6 -2 13 -13 16 -13 3 -18 1 -13
-5 3 -7 1 -8 -5 -4 -6 4 -21 2 -33 -4 -16 -9 -24 -9 -33 0 -8 8 -7 10 4 5 22
-8 58 19 40 30 -9 6 -11 4 -5 -5 5 -8 3 -11 -6 -8 -8 3 -13 11 -12 17 2 6 -3
12 -10 12 -6 1 -17 2 -23 3 -6 0 -18 9 -28 18 -20 21 -60 33 -80 25 -8 -3 -17
0 -20 8 -3 10 0 12 12 9 9 -3 6 1 -7 9 -14 8 -31 13 -38 10 -7 -3 -13 0 -13 6
0 14 -131 78 -152 73 -11 -2 -18 3 -18 12 0 9 -6 13 -14 10 -8 -3 -24 0 -36 6
-17 9 -26 8 -45 -4 -14 -9 -26 -16 -28 -16 -10 0 0 52 11 59 8 4 1 13 -19 25
-17 10 -33 15 -36 12 -3 -3 7 -11 23 -17 16 -6 23 -13 17 -16 -7 -3 -13 -11
-13 -19 0 -9 -11 -14 -35 -14 -24 0 -35 5 -35 15 0 11 -11 15 -41 15 -37 0
-41 2 -36 20 4 16 -4 24 -41 42 -26 11 -41 23 -34 26 8 2 25 -2 38 -9 19 -10
27 -10 36 -1 16 16 -3 35 -36 35 -14 0 -23 3 -21 7 6 10 -24 22 -36 14 -5 -3
-9 -1 -9 5 0 6 -7 7 -17 4 -11 -4 -14 -3 -9 5 9 15 -6 16 -21 1 -8 -8 -17 -4
-34 15 -23 26 -51 38 -30 12 10 -12 8 -14 -11 -10 -20 5 -19 3 5 -11 16 -9 42
-17 58 -17 17 -1 25 -4 19 -8 -6 -4 -30 -4 -53 1 -23 4 -44 5 -46 3 -2 -2 1
-4 8 -4 7 0 10 -4 7 -8 -3 -5 8 -6 25 -4 16 2 29 0 29 -4 -1 -21 -18 -29 -62
-30 -43 -1 -46 0 -50 27 -3 15 -1 26 4 23 4 -3 8 -11 8 -19 0 -8 4 -16 9 -19
5 -4 5 10 1 31 -5 20 -7 40 -4 44 2 4 -10 11 -28 14 -28 7 -30 9 -15 20 9 6
14 15 10 18 -3 4 -12 -1 -18 -10 -11 -15 -15 -15 -29 -4 -9 8 -19 11 -22 8 -3
-3 4 -10 15 -17 14 -7 21 -21 21 -40 l0 -30 -75 0 c-60 0 -75 3 -75 15 0 12
-16 15 -81 15 -71 0 -80 2 -77 18 3 9 11 15 19 12 33 -10 219 -9 219 2 0 7 5
6 15 -2 8 -6 20 -10 26 -8 12 4 -4 11 -94 40 -37 12 -49 13 -53 4 -7 -19 -90
-20 -98 -1 -3 9 -2 13 3 10 5 -3 12 -1 16 5 4 6 11 8 16 5 5 -4 9 1 9 9 0 9 3
16 8 16 4 0 18 9 32 20 18 15 20 18 6 13 -15 -5 -17 -3 -11 7 6 10 4 12 -8 7
-9 -3 -18 -3 -20 1 -2 4 -2 1 0 -6 2 -8 -6 -16 -18 -19 -16 -5 -18 -8 -7 -15
8 -5 -2 -6 -27 -2 -22 4 -41 11 -43 15 -2 5 -37 9 -78 9 -43 0 -74 4 -74 10 0
6 -18 10 -40 10 -29 0 -40 4 -40 15 0 12 -8 14 -30 10 -22 -4 -32 -1 -36 10
-4 10 -20 15 -49 15 -27 0 -50 6 -60 16 -12 12 -33 16 -81 15 -51 -1 -64 2
-64 14 0 11 -11 15 -40 15 -29 0 -40 4 -40 15 0 12 -16 15 -80 15 -47 0 -80 4
-80 10 0 6 -18 10 -39 10 -26 0 -41 5 -45 15 -4 12 -14 14 -41 9 -31 -5 -35
-4 -35 15 0 20 -5 21 -80 21 -47 0 -80 4 -80 10 0 6 -18 10 -40 10 -29 0 -40
4 -40 15 0 11 -11 15 -40 15 -29 0 -40 4 -40 15 0 12 -16 15 -80 15 -47 0 -80
4 -80 10 0 6 -18 10 -40 10 -29 0 -40 4 -40 15 0 11 -11 15 -40 15 -29 0 -40
4 -40 15 0 12 -16 15 -80 15 -47 0 -80 4 -80 10 0 6 -18 10 -40 10 -29 0 -40
4 -40 15 0 11 -11 15 -40 15 -29 0 -40 4 -40 15 0 12 -16 15 -80 15 -47 0 -80
4 -80 10 0 6 -18 10 -40 10 -29 0 -40 4 -40 15 0 11 -11 15 -40 15 -29 0 -40
4 -40 15 0 12 -16 15 -80 15 -47 0 -80 4 -80 10 0 6 -18 10 -40 10 -29 0 -40
4 -40 15 0 11 -11 15 -40 15 -29 0 -40 4 -40 15 0 12 -16 15 -80 15 -47 0 -80
4 -80 10 0 6 -18 10 -40 10 -29 0 -40 4 -40 15 0 11 -11 15 -40 15 -29 0 -40
4 -40 15 0 12 -16 15 -80 15 -47 0 -80 4 -80 10 0 6 -18 10 -40 10 -29 0 -40
4 -40 15 0 11 -11 15 -40 15 -29 0 -40 4 -40 15 0 12 -16 15 -80 15 -47 0 -80
4 -80 10 0 6 -18 10 -40 10 -29 0 -40 4 -40 15 0 11 -11 15 -40 15 -29 0 -40
4 -40 15 0 12 -16 15 -80 15 -47 0 -80 4 -80 10 0 6 -18 10 -40 10 -29 0 -40
4 -40 15 0 11 -11 15 -40 15 -29 0 -40 4 -40 15 0 12 -16 15 -80 15 -47 0 -80
4 -80 10 0 6 -18 10 -40 10 -22 0 -40 5 -40 10 0 6 -18 10 -40 10 -36 0 -40
-2 -40 -25 0 -25 -1 -25 -80 -25 -64 0 -80 3 -80 15 0 12 -16 15 -80 15 -61 0
-80 3 -80 14 0 11 29 13 160 10 137 -3 160 -2 160 11 0 13 38 22 73 16 4 0 7
4 7 9 0 7 -35 8 -105 4 -94 -6 -105 -5 -105 10 0 21 -17 21 -23 -1 -4 -17 -5
-17 -6 0 -1 16 -33 21 -143 20 -10 0 -18 7 -18 15 0 11 -3 12 -14 3 -9 -8 -15
-8 -18 -2 -1 6 -19 13 -38 17 -26 4 -31 3 -20 -5 12 -9 11 -11 -9 -11 -13 0
-21 3 -18 7 8 7 -38 33 -58 33 -7 0 -15 6 -18 13 -3 9 -9 9 -27 -1 -15 -9 -20
-10 -15 -2 6 9 2 9 -13 1 -11 -6 -33 -11 -49 -10 l-28 1 25 8 c20 6 14 8 -25
9 -27 0 -115 3 -195 7 -80 3 -148 3 -152 -1z m292 -21 c0 -2 -24 -3 -52 -3
-52 2 -53 2 -13 8 37 6 65 4 65 -5z m-361 -10 c10 -9 -55 -3 -69 6 -10 6 -2 7
25 3 22 -3 42 -7 44 -9z m94 9 c-7 -2 -19 -2 -25 0 -7 3 -2 5 12 5 14 0 19 -2
13 -5z m-478 -13 c-16 -4 -48 -7 -70 -7 l-40 0 45 7 c25 4 56 7 70 7 22 1 21
0 -5 -7z m188 3 c-7 -2 -21 -2 -30 0 -10 3 -4 5 12 5 17 0 24 -2 18 -5z m77
-3 c0 -5 -5 -10 -11 -10 -5 0 -7 5 -4 10 3 6 8 10 11 10 2 0 4 -4 4 -10z m540
1 c0 -5 18 -7 39 -4 22 3 61 2 88 -2 42 -7 45 -9 23 -16 -14 -4 -36 -7 -50 -7
-23 0 -22 1 5 9 22 6 15 7 -25 3 -153 -13 -194 -14 -175 -5 14 7 -18 10 -103
10 -68 1 -121 -3 -118 -8 3 -4 -7 -6 -22 -3 l-27 6 34 8 c32 9 215 5 296 -5
22 -3 30 -3 17 -1 -12 3 -20 10 -17 15 8 12 35 12 35 0z m-687 -8 c-7 -2 -21
-2 -30 0 -10 3 -4 5 12 5 17 0 24 -2 18 -5z m80 -10 c-7 -2 -21 -2 -30 0 -10
3 -4 5 12 5 17 0 24 -2 18 -5z m124 1 c-3 -3 -12 -4 -19 -1 -8 3 -5 6 6 6 11
1 17 -2 13 -5z m98 -4 c25 -11 -1 -11 -35 0 -20 6 -21 8 -5 8 11 0 29 -3 40
-8z m-1049 -66 c1 -9 0 -13 -4 -10 -3 4 -7 14 -8 22 -1 9 0 13 4 10 3 -4 7
-14 8 -22z m1904 4 c0 -7 -58 -13 -82 -9 -5 0 -8 -3 -8 -8 0 -5 -16 -5 -37 0
-21 5 -71 9 -110 9 -43 0 -73 4 -73 10 0 7 54 10 155 8 85 -2 155 -6 155 -10z
m40 -18 c12 -8 11 -10 -7 -10 -13 0 -23 5 -23 10 0 13 11 13 30 0z m40 0 c0
-5 -4 -10 -10 -10 -5 0 -10 5 -10 10 0 6 5 10 10 10 6 0 10 -4 10 -10z m730
-200 l0 -30 -80 0 c-64 0 -80 3 -80 15 0 12 -16 15 -80 15 -64 0 -80 3 -80 15
0 13 24 15 160 15 l160 0 0 -30z m640 -160 l0 -30 -80 0 c-64 0 -80 3 -80 15
0 12 -16 15 -80 15 -64 0 -80 3 -80 15 0 13 24 15 160 15 l160 0 0 -30z m640
-160 l0 -30 -80 0 c-64 0 -80 3 -80 15 0 12 -16 15 -80 15 -64 0 -80 3 -80 15
0 13 24 15 160 15 l160 0 0 -30z m640 -160 l0 -30 -80 0 c-64 0 -80 3 -80 15
0 12 -16 15 -80 15 -64 0 -80 3 -80 15 0 13 24 15 160 15 l160 0 0 -30z m638
-162 l3 -28 -80 0 c-65 0 -81 3 -81 15 0 12 -16 15 -80 15 -65 0 -80 3 -80 15
0 13 22 15 158 13 l157 -3 3 -27z m562 -118 c0 -6 5 -8 10 -5 6 3 10 1 10 -4
0 -6 14 -11 30 -11 25 0 30 -4 30 -25 0 -25 -1 -25 -80 -25 -64 0 -80 3 -80
15 0 12 -16 15 -80 15 -64 0 -80 3 -80 15 0 12 15 15 79 15 44 0 82 4 85 8 7
12 76 14 76 2z m510 -64 c0 -2 -7 -7 -16 -10 -8 -3 -12 -2 -9 4 6 10 25 14 25
6z m460 -174 c0 -2 -7 -10 -15 -18 -11 -12 -19 -12 -35 -4 -11 6 -18 15 -16
19 5 8 66 10 66 3z m-54 -67 c-3 -8 0 -15 6 -15 6 0 9 -3 6 -6 -7 -7 -48 18
-48 28 0 5 9 8 21 8 15 0 19 -5 15 -15z m74 -15 c0 -5 -11 -10 -25 -10 -14 0
-25 5 -25 10 0 6 11 10 25 10 14 0 25 -4 25 -10z m415 -140 c3 -6 13 -10 20
-10 8 0 32 -16 52 -37 21 -20 31 -33 23 -30 -8 4 -22 10 -32 13 -9 3 -18 14
-21 25 -3 10 -13 19 -24 19 -10 0 -29 12 -43 27 -23 24 -23 25 -3 15 12 -7 25
-17 28 -22z m-20 -28 c-3 -3 -11 0 -18 7 -9 10 -8 11 6 5 10 -3 15 -9 12 -12z
m-72 1 c-7 -2 -19 -2 -25 0 -7 3 -2 5 12 5 14 0 19 -2 13 -5z m307 -73 c13 -9
13 -10 0 -10 -8 0 -22 5 -30 10 -13 9 -13 10 0 10 8 0 22 -5 30 -10z m15 -80
c3 -6 -4 -10 -17 -10 -18 0 -20 2 -8 10 19 12 18 12 25 0z m230 -89 c-6 -5
-25 10 -25 20 0 5 6 4 14 -3 8 -7 12 -15 11 -17z m540 -210 c3 -5 2 -12 -3
-15 -5 -3 -9 1 -9 9 0 17 3 19 12 6z m120 -59 c-3 -3 -11 0 -18 7 -9 10 -8 11
6 5 10 -3 15 -9 12 -12z m7182 -1768 c-3 -3 -12 -4 -19 -1 -8 3 -5 6 6 6 11 1
17 -2 13 -5z m150 -10 c-3 -3 -12 -4 -19 -1 -8 3 -5 6 6 6 11 1 17 -2 13 -5z
m360 0 c-3 -3 -12 -4 -19 -1 -8 3 -5 6 6 6 11 1 17 -2 13 -5z m-240 -50 c-3
-3 -12 -4 -19 -1 -8 3 -5 6 6 6 11 1 17 -2 13 -5z m-100 -30 c-3 -3 -12 -4
-19 -1 -8 3 -5 6 6 6 11 1 17 -2 13 -5z"/>
<path d="M22268 12273 c7 -3 16 -2 19 1 4 3 -2 6 -13 5 -11 0 -14 -3 -6 -6z"/>
<path d="M18103 13373 c9 -2 15 -8 12 -12 -9 -16 109 -20 160 -6 l50 14 -85
-2 c-47 -1 -101 1 -120 4 -19 4 -27 4 -17 2z m134 -19 c-3 -3 -12 -4 -19 -1
-8 3 -5 6 6 6 11 1 17 -2 13 -5z"/>
<path d="M18363 13353 c9 -2 23 -2 30 0 6 3 -1 5 -18 5 -16 0 -22 -2 -12 -5z"/>
<path d="M18425 13350 c27 -12 43 -12 25 0 -8 5 -22 9 -30 9 -10 0 -8 -3 5 -9z"/>
<path d="M18318 13343 c7 -3 16 -2 19 1 4 3 -2 6 -13 5 -11 0 -14 -3 -6 -6z"/>
<path d="M18495 13340 l-20 -9 20 1 c11 0 34 4 50 8 l30 8 -30 0 c-16 0 -39
-3 -50 -8z"/>
<path d="M18350 13336 c0 -2 13 -6 29 -8 17 -2 28 -1 25 4 -5 8 -54 12 -54 4z"/>
<path d="M18605 13330 c-3 -5 -2 -10 4 -10 5 0 13 5 16 10 3 6 2 10 -4 10 -5
0 -13 -4 -16 -10z"/>
<path d="M18748 13323 c7 -3 16 -2 19 1 4 3 -2 6 -13 5 -11 0 -14 -3 -6 -6z"/>
<path d="M18824 13305 c30 -16 43 -14 31 4 -3 6 -18 11 -33 11 l-27 0 29 -15z"/>
<path d="M18950 13280 c-9 -6 -10 -10 -3 -10 6 0 15 5 18 10 8 12 4 12 -15 0z"/>
<path d="M19078 13273 c7 -3 16 -2 19 1 4 3 -2 6 -13 5 -11 0 -14 -3 -6 -6z"/>
<path d="M19150 13271 c8 -6 24 -11 35 -11 17 0 17 -2 5 -10 -8 -5 -10 -10 -5
-10 6 0 16 4 24 9 14 9 6 13 -54 27 -16 4 -17 3 -5 -5z"/>
<path d="M18888 13263 c7 -3 16 -2 19 1 4 3 -2 6 -13 5 -11 0 -14 -3 -6 -6z"/>
<path d="M19268 13253 c7 -3 16 -2 19 1 4 3 -2 6 -13 5 -11 0 -14 -3 -6 -6z"/>
<path d="M18908 13243 c7 -3 16 -2 19 1 4 3 -2 6 -13 5 -11 0 -14 -3 -6 -6z"/>
<path d="M19318 13243 c7 -3 16 -2 19 1 4 3 -2 6 -13 5 -11 0 -14 -3 -6 -6z"/>
<path d="M19604 13184 c-18 -14 -18 -14 6 -3 31 14 36 19 24 19 -6 0 -19 -7
-30 -16z"/>
<path d="M19470 13170 c14 -4 32 -8 40 -9 13 -1 13 0 0 9 -8 5 -26 9 -40 9
l-25 -1 25 -8z"/>
<path d="M19915 13121 c-3 -5 -2 -12 3 -15 5 -3 9 1 9 9 0 17 -3 19 -12 6z"/>
<path d="M20018 13113 c7 -3 16 -2 19 1 4 3 -2 6 -13 5 -11 0 -14 -3 -6 -6z"/>
<path d="M20200 13070 c0 -5 5 -10 10 -10 6 0 10 5 10 10 0 6 -4 10 -10 10 -5
0 -10 -4 -10 -10z"/>
<path d="M20570 12950 c-8 -5 -10 -10 -5 -10 6 0 17 5 25 10 8 5 11 10 5 10
-5 0 -17 -5 -25 -10z"/>
<path d="M20630 12949 c0 -8 59 -3 67 5 2 2 -12 4 -31 3 -20 -1 -36 -4 -36 -8z"/>
<path d="M20750 12930 c-12 -7 -10 -9 7 -7 12 0 19 5 17 9 -6 10 -6 10 -24 -2z"/>
<path d="M20870 12880 c-9 -6 -10 -10 -3 -10 6 0 15 5 18 10 8 12 4 12 -15 0z"/>
<path d="M20800 12870 c0 -5 5 -10 10 -10 6 0 10 5 10 10 0 6 -4 10 -10 10 -5
0 -10 -4 -10 -10z"/>
<path d="M20838 12853 c6 -2 18 -2 25 0 6 3 1 5 -13 5 -14 0 -19 -2 -12 -5z"/>
<path d="M21205 12800 c-3 -6 1 -7 9 -4 18 7 21 14 7 14 -6 0 -13 -4 -16 -10z"/>
<path d="M21230 12790 c-8 -5 -10 -10 -5 -10 6 0 17 5 25 10 8 5 11 10 5 10
-5 0 -17 -5 -25 -10z"/>
<path d="M21158 12783 c7 -3 16 -2 19 1 4 3 -2 6 -13 5 -11 0 -14 -3 -6 -6z"/>
<path d="M21398 12738 c5 -5 16 -8 23 -6 8 3 3 7 -10 11 -17 4 -21 3 -13 -5z"/>
<path d="M21448 12703 c7 -3 16 -2 19 1 4 3 -2 6 -13 5 -11 0 -14 -3 -6 -6z"/>
<path d="M21510 12700 c-19 -5 -13 -7 25 -7 33 0 43 3 30 8 -24 9 -23 9 -55
-1z"/>
<path d="M21638 12663 c7 -3 16 -2 19 1 4 3 -2 6 -13 5 -11 0 -14 -3 -6 -6z"/>
<path d="M21759 12613 c-13 -17 -13 -17 6 -3 11 8 22 16 24 17 2 2 0 3 -6 3
-6 0 -17 -8 -24 -17z"/>
<path d="M21631 12616 c2 -2 18 -6 34 -10 22 -5 26 -4 15 4 -14 9 -59 15 -49
6z"/>
<path d="M21718 12613 c7 -3 16 -2 19 1 4 3 -2 6 -13 5 -11 0 -14 -3 -6 -6z"/>
<path d="M21840 12600 c8 -5 20 -10 25 -10 6 0 3 5 -5 10 -8 5 -19 10 -25 10
-5 0 -3 -5 5 -10z"/>
<path d="M21909 12571 c12 -8 12 -10 0 -14 -8 -2 -6 -3 4 -1 14 2 17 -3 13
-19 -3 -12 -3 -16 0 -9 3 6 13 12 21 12 11 0 8 6 -10 20 -14 11 -29 20 -34 20
-4 0 -2 -4 6 -9z"/>
<path d="M21878 12533 c6 -2 18 -2 25 0 6 3 1 5 -13 5 -14 0 -19 -2 -12 -5z"/>
<path d="M22047 12529 c7 -7 15 -10 18 -7 3 3 -2 9 -12 12 -14 6 -15 5 -6 -5z"/>
<path d="M22085 12510 c-3 -6 1 -7 9 -4 18 7 21 14 7 14 -6 0 -13 -4 -16 -10z"/>
<path d="M22120 12500 c0 -5 7 -10 15 -10 7 0 18 -6 22 -14 7 -12 10 -12 21 0
7 8 8 14 2 14 -18 0 -25 2 -42 11 -12 6 -18 6 -18 -1z"/>
<path d="M22236 12461 c-3 -4 0 -8 7 -8 7 0 22 -3 35 -7 33 -11 27 0 -8 12
-16 6 -32 7 -34 3z"/>
<path d="M22080 12450 c0 -13 11 -13 30 0 12 8 11 10 -7 10 -13 0 -23 -4 -23
-10z"/>
<path d="M22345 12405 c-32 -14 -17 -18 25 -6 14 4 20 10 15 13 -6 3 -23 0
-40 -7z"/>
<path d="M22410 12370 c-11 -8 -7 -9 15 -4 37 8 45 14 19 14 -10 0 -26 -5 -34
-10z"/>
<path d="M22505 12361 c-3 -5 -1 -12 5 -16 5 -3 10 1 10 9 0 18 -6 21 -15 7z"/>
<path d="M22560 12331 c0 -5 10 -7 23 -4 22 4 22 4 -1 -10 l-24 -14 29 -10
c35 -14 113 -17 113 -5 0 5 -14 6 -31 4 -22 -3 -30 -1 -25 6 4 6 -6 18 -23 27
-33 17 -61 20 -61 6z m72 -33 c-8 -8 -17 -8 -34 0 -22 10 -21 11 12 11 26 1
31 -2 22 -11z"/>
<path d="M22439 12309 c-10 -6 -4 -9 19 -9 17 0 32 2 32 4 0 9 -39 13 -51 5z"/>
<path d="M22728 12278 c10 -13 10 -17 0 -21 -7 -2 -9 -8 -5 -13 4 -5 12 -2 16
5 6 9 17 11 32 6 31 -10 23 -2 -21 20 -29 15 -33 15 -22 3z"/>
<path d="M22856 12215 c-11 -8 -15 -15 -9 -15 7 0 15 5 18 10 3 6 11 10 16 10
6 0 8 -3 6 -7 -3 -5 9 -9 26 -10 l32 -2 -34 15 c-18 7 -34 14 -35 14 0 0 -10
-7 -20 -15z"/>
<path d="M22964 12174 c0 -27 1 -28 27 -14 13 7 19 7 19 0 0 -5 7 -10 15 -10
8 0 15 5 15 10 0 10 -21 14 -49 11 -7 -2 -10 2 -7 7 3 6 0 12 -7 15 -8 3 -13
-4 -13 -19z"/>
<path d="M23090 12133 c8 -3 18 -11 22 -17 4 -6 10 -7 15 -3 9 10 -16 27 -37
26 -13 -1 -13 -1 0 -6z"/>
<path d="M23369 12004 c-11 -14 -11 -18 4 -29 9 -6 14 -15 10 -18 -13 -14 54
-6 73 8 10 8 15 15 9 16 -5 0 -20 2 -32 3 -13 2 -23 -1 -23 -5 0 -5 -7 -6 -16
-2 -14 5 -13 8 6 18 20 10 20 13 5 18 -22 9 -21 9 -36 -9z"/>
<path d="M23565 11920 c5 -9 1 -10 -16 -5 -17 4 -20 3 -10 -3 7 -5 9 -12 5
-14 -5 -3 -2 -3 6 0 8 3 23 5 33 6 22 0 22 3 -4 17 -17 8 -20 8 -14 -1z"/>
</g>
</svg>
